<svg id="Layer_1" data-name="Layer 1" xmlns="http://www.w3.org/2000/svg" viewBox="0 0 224.5 293.66"><defs><style>.cls-1{fill:#147a4e;}.cls-2{fill:#f2f2f2;}.cls-3{font-size:40px;fill:#fff;font-family:Catamaran-SemiBold, Catamaran;font-weight:600;}</style></defs><rect class="cls-1" x="19.77" y="23.93" width="191.81" height="191.81" rx="42.31"/><path class="cls-2" d="M134.65,148.87c-3.35-2.51-6.6.64-12.05-2.1-6.33-3.17-8.62-10.56-9.74-14.2a31.3,31.3,0,0,1-1.38-10.06,35,35,0,0,1,1.38-15.41c1.38-4.19,3.69-11.16,9.74-14.2,5.45-2.74,8.7.41,12.05-2.1,5.44-4.08,5.45-18.66-1.9-25.09-8.86-7.74-25.95-1.53-32.88,7.71-2.22,3-3.16,5.93-4.41,9.87-2,6.43-2.3,11.37-2.49,21.78-.19,10.58-.19,19,0,29.53.19,10.41.45,15.35,2.49,21.79,1.25,3.94,2.19,6.9,4.41,9.86,6.93,9.24,24,15.45,32.88,7.71C140.1,167.53,140.09,153,134.65,148.87Z"/><text class="cls-3" transform="translate(30.76 269.72)">Tillphone</text></svg>