<svg id="Layer_1" data-name="Layer 1" xmlns="http://www.w3.org/2000/svg" viewBox="0 0 224.5 293.66"><defs><style>.cls-1{fill:#c91c3a;}.cls-2{fill:#f2f2f2;}.cls-3{font-size:40px;fill:#fff;font-family:Catamaran-SemiBold, Catamaran;font-weight:600;}</style></defs><rect class="cls-1" x="16.35" y="23.06" width="191.81" height="191.81" rx="42.31"/><path class="cls-2" d="M158.6,72.27H65.9A27.21,27.21,0,0,0,38.78,99.39v39.14A27.2,27.2,0,0,0,65.9,165.65h92.7a27.2,27.2,0,0,0,27.12-27.12V99.39A27.21,27.21,0,0,0,158.6,72.27ZM112.25,140.7a21.06,21.06,0,1,1,21.07-21.06A21.06,21.06,0,0,1,112.25,140.7ZM148,102.89a9.1,9.1,0,1,1,9.1-9.1A9.1,9.1,0,0,1,148,102.89Z"/><text class="cls-3" transform="translate(45.07 270.6)">Camera</text></svg>