<svg id="Layer_1" data-name="Layer 1" xmlns="http://www.w3.org/2000/svg" xmlns:xlink="http://www.w3.org/1999/xlink" viewBox="0 0 224.5 293.66"><defs><style>.cls-1{fill:url(#linear-gradient);}.cls-2,.cls-3{fill:#fff;}.cls-3{font-size:40px;font-family:Catamaran-SemiBold, Catamaran;font-weight:600;}</style><linearGradient id="linear-gradient" x1="21.13" y1="210.22" x2="209.85" y2="23.03" gradientUnits="userSpaceOnUse"><stop offset="0" stop-color="#ea7265"/><stop offset="0.16" stop-color="#ea7265"/><stop offset="0.91" stop-color="#e22b6d"/><stop offset="1" stop-color="#bc427a"/></linearGradient></defs><rect class="cls-1" x="16.35" y="23.93" width="191.81" height="191.81" rx="42.31"/><path class="cls-2" d="M166.64,61.27a120.82,120.82,0,0,0-28.88,3.67,117.22,117.22,0,0,0-17.07,5.67A105.75,105.75,0,0,0,96.69,85a45.93,45.93,0,0,0-24.65-1c-6.18,1.51-10.55,4-14.66,6.47A78.28,78.28,0,0,0,38,106.59l38.36.82a102.14,102.14,0,0,1-6.57,10.37l1.27,2.39-.47.25c-5.27-.26-12.38-.28-19.71,2.35a21.57,21.57,0,0,0-3.36,1.4,29.72,29.72,0,0,0-11.6,11.75,13.27,13.27,0,0,1,6.49-3,18.52,18.52,0,0,1,5.92.67,48.06,48.06,0,0,0-17.09,13.56,37.45,37.45,0,0,0-4.51,8.24,31,31,0,0,0,9.18,2,48.07,48.07,0,0,0,21.44-4A18.57,18.57,0,0,1,54,158.25a13.26,13.26,0,0,1-6.5,3A29.82,29.82,0,0,0,64,160.14a22.49,22.49,0,0,0,3.26-1.63c7.22-4.08,11.47-9.35,15.94-15l.13-.17.06,0,1.54,2.9,11.42.37L76,178.4c17.57-2.64,31-9.22,37.76-15.71a53.88,53.88,0,0,0,8.61-11,49.23,49.23,0,0,0,4-9.55,105.9,105.9,0,0,0,13-4.58,69.23,69.23,0,0,0,13.39-7l.22-.14C174.68,117,186.87,96,186.87,96a95.32,95.32,0,0,0,10.89-28.8A86,86,0,0,0,166.64,61.27ZM166,97.67c-5.51,4-18.72-3.12-18.72-3.12.25-2,1.27-9.45,3.29-13.7a6.38,6.38,0,0,1,1.55-2.11,7.47,7.47,0,0,1,5.9-1.41,7.11,7.11,0,0,1,5,3.16,7,7,0,0,1,.73,5.2,6.78,6.78,0,0,1,4.33,2.89C169.76,91.46,168.48,95.85,166,97.67Z"/><text class="cls-3" transform="translate(57.81 269.72)">Tillder</text></svg>