<svg id="Layer_1" data-name="Layer 1" xmlns="http://www.w3.org/2000/svg" xmlns:xlink="http://www.w3.org/1999/xlink" viewBox="0 0 1242 2208"><defs><style>.cls-1,.cls-12,.cls-8,.cls-9{fill:none;}.cls-2{fill:#d3d3d3;}.cls-3{font-size:40.43px;}.cls-10,.cls-3{font-family:Exo2-Thin, "Exo 2";font-weight:200;}.cls-4{fill:#333;opacity:0.7;}.cls-5{clip-path:url(#clip-path);}.cls-10,.cls-11,.cls-6{fill:#fff;}.cls-6{opacity:0.2;}.cls-7{fill:#666;}.cls-10,.cls-11,.cls-12,.cls-8,.cls-9{stroke:#000;}.cls-11,.cls-12,.cls-8,.cls-9{stroke-linecap:round;stroke-linejoin:round;}.cls-8,.cls-9{stroke-width:2.62px;}.cls-9{opacity:0.5;}.cls-10{font-size:22.3px;stroke-miterlimit:10;stroke-width:0.5px;}</style><clipPath id="clip-path"><rect class="cls-1" x="1156.73" y="36.79" width="26.1" height="51.4"/></clipPath></defs><rect class="cls-2" width="1242" height="2208.77"/><text class="cls-3" transform="translate(72.32 58.23)">2:09</text><text class="cls-3" transform="translate(1071.89 59.85)">2%</text><path class="cls-4" d="M1176,31.36h-1.36V30a1.4,1.4,0,0,0-1.32-1.47h-7a1.4,1.4,0,0,0-1.32,1.47v1.35h-1.36a3.71,3.71,0,0,0-3.49,3.9V55.72a3.7,3.7,0,0,0,3.49,3.89H1176a3.7,3.7,0,0,0,3.48-3.89V35.26A3.71,3.71,0,0,0,1176,31.36Z"/><g class="cls-5"><path class="cls-6" d="M1176,31.7h-1.36V30.35a1.4,1.4,0,0,0-1.32-1.47h-7a1.4,1.4,0,0,0-1.32,1.47V31.7h-1.36a3.7,3.7,0,0,0-3.49,3.89V56.05a3.7,3.7,0,0,0,3.49,3.89H1176a3.7,3.7,0,0,0,3.48-3.89V35.59A3.7,3.7,0,0,0,1176,31.7Z"/><path class="cls-7" d="M1176,31.77h-1.36V30.42a1.4,1.4,0,0,0-1.32-1.47h-7a1.4,1.4,0,0,0-1.32,1.47v1.35h-1.36a3.7,3.7,0,0,0-3.49,3.89V56.13a3.71,3.71,0,0,0,3.49,3.89H1176a3.71,3.71,0,0,0,3.48-3.89V35.66A3.7,3.7,0,0,0,1176,31.77Z"/></g><line class="cls-8" x1="1037.54" y1="52.24" x2="1037.54" y2="58.84"/><line class="cls-8" x1="1046.24" y1="45.64" x2="1046.24" y2="58.84"/><line class="cls-8" x1="1054.93" y1="39.07" x2="1054.93" y2="58.84"/><line class="cls-9" x1="1063.63" y1="32.43" x2="1063.63" y2="58.84"/><text class="cls-10" transform="translate(982.2 45.14)">+4G</text><line class="cls-11" x1="987.04" y1="54.3" x2="993.52" y2="61.17"/><line class="cls-11" x1="993.52" y1="61.17" x2="999.99" y2="54.3"/><line class="cls-12" x1="993.52" y1="48.88" x2="993.52" y2="61.17"/><line class="cls-11" x1="1014.54" y1="52.94" x2="1008.06" y2="46.08"/><line class="cls-11" x1="1008.06" y1="46.08" x2="1001.59" y2="52.94"/><line class="cls-12" x1="1008.06" y1="58.36" x2="1008.06" y2="46.08"/></svg>