<svg id="Layer_1" data-name="Layer 1" xmlns="http://www.w3.org/2000/svg" xmlns:xlink="http://www.w3.org/1999/xlink" viewBox="0 0 1242 2208"><defs><style>.cls-1,.cls-11,.cls-7,.cls-8{fill:none;}.cls-2{font-size:40.43px;}.cls-10,.cls-2,.cls-5,.cls-9{fill:#fff;}.cls-2,.cls-9{font-family:Exo2-Thin, "Exo 2";font-weight:200;}.cls-3{fill:#f2f2f2;opacity:0.7;}.cls-4{clip-path:url(#clip-path);}.cls-5{opacity:0.2;}.cls-6{fill:gray;}.cls-10,.cls-11,.cls-7,.cls-8,.cls-9{stroke:#fff;}.cls-10,.cls-11,.cls-7,.cls-8{stroke-linecap:round;stroke-linejoin:round;}.cls-7,.cls-8{stroke-width:2.62px;}.cls-8{opacity:0.5;}.cls-9{font-size:22.3px;stroke-miterlimit:10;stroke-width:0.5px;}.cls-12{fill:url(#linear-gradient);}</style><clipPath id="clip-path"><rect class="cls-1" x="1153.23" y="35.28" width="26.1" height="51.4"/></clipPath><linearGradient id="linear-gradient" y1="1144.4" x2="1242" y2="1144.4" gradientUnits="userSpaceOnUse"><stop offset="0" stop-color="#001759"/><stop offset="1" stop-color="#30055e"/></linearGradient></defs><rect width="1242" height="80.8"/><text class="cls-2" transform="translate(68.82 56.72)">2:09</text><text class="cls-2" transform="translate(1068.39 58.34)">2%</text><path class="cls-3" d="M1172.48,29.86h-1.35V28.5a1.4,1.4,0,0,0-1.32-1.47h-7.06a1.4,1.4,0,0,0-1.31,1.47v1.36h-1.36a3.7,3.7,0,0,0-3.49,3.89V54.21a3.7,3.7,0,0,0,3.49,3.89h12.4a3.7,3.7,0,0,0,3.49-3.89V33.75A3.7,3.7,0,0,0,1172.48,29.86Z"/><g class="cls-4"><path class="cls-5" d="M1172.48,30.19h-1.35V28.84a1.4,1.4,0,0,0-1.32-1.47h-7.06a1.4,1.4,0,0,0-1.31,1.47v1.35h-1.36a3.7,3.7,0,0,0-3.49,3.89V54.55a3.71,3.71,0,0,0,3.49,3.89h12.4a3.71,3.71,0,0,0,3.49-3.89V34.08A3.7,3.7,0,0,0,1172.48,30.19Z"/><path class="cls-6" d="M1172.48,30.26h-1.35V28.91a1.4,1.4,0,0,0-1.32-1.47h-7.06a1.4,1.4,0,0,0-1.31,1.47v1.35h-1.36a3.71,3.71,0,0,0-3.49,3.9V54.62a3.7,3.7,0,0,0,3.49,3.89h12.4a3.7,3.7,0,0,0,3.49-3.89V34.16A3.71,3.71,0,0,0,1172.48,30.26Z"/></g><line class="cls-7" x1="1034.04" y1="50.73" x2="1034.04" y2="57.34"/><line class="cls-7" x1="1042.73" y1="44.13" x2="1042.73" y2="57.34"/><line class="cls-7" x1="1051.43" y1="37.56" x2="1051.43" y2="57.34"/><line class="cls-8" x1="1060.12" y1="30.92" x2="1060.12" y2="57.34"/><text class="cls-9" transform="translate(978.7 43.63)">+4G</text><line class="cls-10" x1="983.54" y1="52.8" x2="990.01" y2="59.66"/><line class="cls-10" x1="990.01" y1="59.66" x2="996.49" y2="52.8"/><line class="cls-11" x1="990.01" y1="47.37" x2="990.01" y2="59.66"/><line class="cls-10" x1="1011.04" y1="51.43" x2="1004.56" y2="44.57"/><line class="cls-10" x1="1004.56" y1="44.57" x2="998.09" y2="51.43"/><line class="cls-11" x1="1004.56" y1="56.85" x2="1004.56" y2="44.57"/><rect class="cls-12" y="80.8" width="1242" height="2127.2"/></svg>