<svg id="Layer_1" data-name="Layer 1" xmlns="http://www.w3.org/2000/svg" viewBox="0 0 194.06 194.96"><defs><style>.cls-1,.cls-2{fill:none;stroke:#cc1b1b;stroke-linecap:round;stroke-linejoin:round;}.cls-1{stroke-width:5.52px;}.cls-2{stroke-width:2px;}</style></defs><path class="cls-1" d="M50.23,154.85a50.84,50.84,0,0,0,17.92-12c10.59-11.18,15-26.93,18-37.78,3.81-13.58,4-21.35,9.87-23.68,3.68-1.48,8.41-.32,11.28,2.25,6.78,6.08,3.09,20,.56,29-3.64,13.08-12.11,34.71-34.44,59.24"/><path class="cls-1" d="M42.49,142.27a22.24,22.24,0,0,0,14.66-10.71"/><path class="cls-1" d="M62.88,120.84a104.19,104.19,0,0,0,9.59-19.38C79,83.85,76.94,74.57,85.72,66.7c1.56-1.4,6.92-6.08,14.66-6.2a22.21,22.21,0,0,1,13.88,5c9.55,7.33,10.2,19.2,10.28,21.2"/><path class="cls-1" d="M124,106.74a105.46,105.46,0,0,1-4,20.3c-7.25,24.24-21.67,40.5-31,49.3"/><path class="cls-1" d="M29.25,99.12c-.26-8.83.37-30.19,14.49-50.47,4.47-6.42,13.15-18.55,29.75-25.4,23.22-9.59,44.21-1.53,47.52-.2,18.27,7.36,27.3,21.19,31.63,27.82,14.21,21.75,13.34,44,12.93,51.69A91.35,91.35,0,0,1,160.86,127"/><path class="cls-1" d="M152.17,114.64a122.47,122.47,0,0,1-6.76,27.07,122.87,122.87,0,0,1-11.57,23"/><path class="cls-1" d="M152.74,100.82a63.43,63.43,0,0,0-7.05-38.35c-2-3.69-14.68-26.61-40-29.89-23.8-3.07-44.58,13-52.73,27.64-9.63,17.29-9.87,30.45-9.87,30.45a33.72,33.72,0,0,1-2,12.69,32.76,32.76,0,0,1-9.85,13.31"/><path class="cls-1" d="M36,132a39.71,39.71,0,0,0,12.16-11.17c7.92-11.32,5.43-21.44,10.15-36.66A76.51,76.51,0,0,1,71.81,59.09"/><path class="cls-1" d="M79.14,50.35A30,30,0,0,1,98.6,43c15.09.11,23.72,12.35,24.53,13.53"/><path class="cls-1" d="M133,69.8a100,100,0,0,1,5.92,33c.27,37.88-21.65,64.53-29.14,72.87"/><polyline class="cls-2" points="1 44.48 1 1 40.13 1"/><polyline class="cls-2" points="193.06 150.48 193.06 193.96 153.93 193.96"/><polyline class="cls-2" points="1 150.48 1 193.96 40.13 193.96"/><polyline class="cls-2" points="193.06 44.48 193.06 1 153.93 1"/></svg>